<svg width="32" height="32" viewBox="0 0 32 32" fill="none" xmlns="http://www.w3.org/2000/svg">
<g clip-path="url(#clip0_86_37)">
<path d="M16 31.9406C15.5031 31.9406 15.0394 31.8232 14.6088 31.6178L10.2029 29.2997C9.54038 28.9769 9.87163 28.8595 10.0704 28.8008C10.9648 28.5367 11.1304 28.4781 12.0579 28.0085C12.1574 27.9498 12.2899 27.9791 12.3891 28.0378L15.7681 29.8278C15.9006 29.8865 16.0662 29.8865 16.1656 29.8278L29.3831 23.0495C29.5156 22.9908 29.5819 22.8734 29.5819 22.7267V9.19911C29.5819 9.0524 29.5156 8.93503 29.3831 8.87635L16.1656 2.12722C16.0331 2.06854 15.8675 2.06854 15.7681 2.12722L2.55063 8.87646C2.41813 8.93514 2.35188 9.08185 2.35188 9.19922V22.7267C2.35188 22.8441 2.41813 22.9908 2.55063 23.0495L6.1615 24.898C8.116 25.7783 9.3415 24.7513 9.3415 23.7243V10.3728C9.3415 10.1968 9.50725 10.0207 9.73913 10.0207H11.4286C11.6274 10.0207 11.8261 10.1674 11.8261 10.3728V23.7242C11.8261 26.0424 10.4016 27.3922 7.91713 27.3922C7.15525 27.3922 6.559 27.3922 4.86963 26.6586L1.39125 24.898C0.53 24.4578 0 23.6362 0 22.7559V9.22857C0 8.34829 0.53 7.5267 1.39125 7.08645L14.6088 0.308097C15.4369 -0.102699 16.5631 -0.102699 17.3913 0.308097L30.6087 7.08645C31.47 7.52659 32 8.34818 32 9.22857V22.756C32 23.6363 31.47 24.4579 30.6087 24.898L17.3913 31.6766C16.9606 31.8527 16.4638 31.9407 16 31.9407V31.9406ZM20.0745 22.6386C14.2774 22.6386 13.0849 20.2912 13.0849 18.2957C13.0849 18.1197 13.2505 17.9436 13.4824 17.9436H15.2049C15.4036 17.9436 15.5694 18.061 15.5694 18.2371C15.8344 19.7922 16.5962 20.5552 20.1076 20.5552C22.8902 20.5552 24.0829 19.9977 24.0829 18.6773C24.0829 17.9143 23.7516 17.3568 19.412 16.9752C15.8013 16.6525 13.5486 15.9482 13.5486 13.3954C13.5486 11.0185 15.8011 9.61002 19.5776 9.61002C23.8178 9.61002 25.9048 10.9011 26.1698 13.7181C26.1698 13.8061 26.1366 13.8941 26.0704 13.9822C26.0041 14.0409 25.9047 14.0995 25.8054 14.0995H24.0829C23.9171 14.0995 23.7516 13.9822 23.7184 13.8355C23.3209 12.2216 22.294 11.6935 19.5776 11.6935C16.5301 11.6935 16.1656 12.6324 16.1656 13.3366C16.1656 14.1877 16.5962 14.4517 20.7039 14.9211C24.7785 15.3906 26.6998 16.0656 26.6998 18.5892C26.6666 21.1714 24.2816 22.6386 20.0745 22.6386Z" fill="#539E43"/>
</g>
<defs>
<clipPath id="clip0_86_37">
<rect width="32" height="32" fill="white"/>
</clipPath>
</defs>
</svg>
